<?xml version="1.0" standalone="no"?>
<!DOCTYPE svg PUBLIC "-//W3C//DTD SVG 20010904//EN"
 "http://www.w3.org/TR/2001/REC-SVG-20010904/DTD/svg10.dtd">
<svg version="1.0" xmlns="http://www.w3.org/2000/svg"
 width="1024.000000pt" height="1024.000000pt" viewBox="0 0 1024.000000 1024.000000"
 preserveAspectRatio="xMidYMid meet">

<g transform="translate(0.000000,1024.000000) scale(0.100000,-0.100000)"
fill="#000000" stroke="none">
<path d="M4770 10159 c-870 -63 -1693 -341 -2420 -816 -496 -325 -941 -745
-1300 -1228 -1086 -1458 -1302 -3404 -563 -5074 522 -1180 1496 -2133 2688
-2629 859 -358 1797 -471 2725 -331 815 123 1602 456 2280 963 358 267 747
659 1015 1021 657 887 1005 1934 1005 3028 0 1185 -400 2302 -1157 3230 -138
170 -520 552 -690 690 -838 683 -1819 1073 -2891 1146 -175 12 -522 12 -692 0z
m650 -104 c282 -13 622 -64 925 -141 1267 -319 2369 -1139 3047 -2269 390
-651 622 -1377 689 -2160 14 -172 14 -605 0 -780 -89 -1055 -469 -1979 -1154
-2809 -135 -164 -471 -495 -645 -637 -760 -619 -1616 -982 -2593 -1100 -157
-19 -236 -23 -544 -23 -443 -1 -642 17 -1029 96 -488 98 -1027 303 -1461 553
-1103 637 -1929 1677 -2288 2885 -89 297 -147 586 -184 912 -22 194 -25 787
-5 978 109 1045 487 1944 1151 2740 127 152 445 470 601 599 858 715 1882
1113 2985 1161 166 7 248 6 505 -5z"/>
<path d="M4318 9825 c-63 -20 -150 -105 -184 -179 -34 -75 -30 -100 18 -104
51 -4 69 8 131 86 93 116 161 131 188 41 16 -52 1 -188 -30 -270 -18 -46 -27
-58 -49 -62 -15 -3 -30 -3 -34 0 -18 10 -5 55 28 98 43 58 55 108 28 123 -11
5 -49 10 -87 10 -72 1 -87 -10 -87 -58 0 -12 -9 -33 -20 -47 -11 -14 -20 -39
-20 -54 0 -34 -9 -36 -32 -9 -39 45 -118 28 -118 -25 0 -41 21 -128 41 -167
22 -43 45 -58 87 -58 16 0 35 -7 42 -15 7 -8 23 -15 36 -15 20 0 24 -5 26 -32
3 -62 -1 -76 -35 -122 -37 -48 -53 -83 -43 -94 4 -3 25 -8 49 -11 40 -6 42 -8
45 -43 3 -34 -1 -39 -37 -62 -74 -47 -89 -94 -47 -143 l24 -28 117 60 c112 58
118 60 188 58 39 -1 79 3 89 8 10 5 25 35 34 66 16 54 16 57 -2 70 -24 17 -99
17 -160 -2 -71 -22 -81 -20 -94 20 -14 44 -4 65 63 126 44 39 51 51 51 82 0
22 -7 44 -17 54 -15 16 -20 15 -76 -14 -33 -17 -62 -28 -65 -25 -9 9 -7 76 3
91 5 8 24 22 42 30 19 9 39 27 45 41 103 213 139 401 95 488 -34 65 -74 95
-133 98 -29 2 -74 -3 -100 -11z m-75 -491 c21 -8 22 -33 3 -60 -14 -18 -15
-18 -24 6 -22 60 -25 73 -11 66 8 -3 22 -9 32 -12z"/>
<path d="M3870 9444 c-139 -85 -159 -122 -97 -182 40 -39 75 -41 115 -7 17 14
35 25 40 25 13 0 25 -57 26 -119 1 -43 -1 -45 -33 -55 -77 -22 -154 -152 -131
-221 14 -43 42 -67 88 -74 20 -4 37 -11 37 -16 0 -6 -4 -50 -9 -98 -7 -73 -5
-92 8 -112 46 -70 112 2 156 171 29 115 60 362 36 293 -3 -8 -17 -60 -31 -117
-30 -121 -63 -212 -76 -212 -12 0 -12 -4 11 130 24 138 26 242 6 259 -9 8 -17
43 -21 94 -5 65 -3 91 10 127 60 157 7 202 -135 114z m64 -477 c-8 -49 -20
-68 -40 -60 -21 8 -17 56 7 87 27 35 40 24 33 -27z"/>
<path d="M5969 9451 c-92 -36 -160 -75 -165 -96 -7 -26 9 -68 36 -95 25 -25
72 -26 152 -4 32 9 61 14 64 11 10 -9 -81 -119 -127 -154 -26 -20 -57 -34 -83
-37 -22 -3 -88 -10 -146 -17 -98 -11 -107 -14 -138 -45 -28 -28 -33 -39 -30
-71 3 -32 8 -41 39 -56 33 -16 46 -16 130 -6 133 17 414 18 430 2 22 -22 66
-15 88 13 29 37 35 84 18 126 l-15 36 -80 -2 c-44 0 -84 2 -87 6 -4 4 15 33
42 65 28 32 65 84 83 116 28 51 31 63 25 105 -9 64 -19 79 -65 102 -48 25
-110 25 -171 1z"/>
<path d="M2765 9093 c-170 -180 -481 -676 -473 -755 3 -29 7 -33 35 -36 39 -4
48 9 124 168 50 103 148 265 156 256 2 -2 -3 -41 -13 -86 -24 -121 -17 -242
19 -303 27 -45 63 -67 86 -52 14 8 14 67 1 136 -12 62 -1 127 35 199 25 49 60
86 68 73 9 -15 -12 -102 -43 -176 -34 -82 -38 -135 -12 -167 17 -21 19 -21 35
-5 23 22 40 8 63 -50 15 -42 15 -47 -1 -87 -18 -47 -51 -88 -71 -88 -36 0 -19
-80 21 -98 38 -18 52 -6 80 69 l27 69 29 -40 c24 -33 35 -40 62 -40 69 0 76
50 17 117 -22 25 -40 53 -40 62 0 22 59 78 85 83 21 3 24 -9 10 -52 l-8 -25
23 20 c30 27 50 68 50 103 0 76 -90 70 -169 -12 -19 -20 -40 -36 -46 -36 -19
0 -45 87 -35 116 16 41 11 73 -14 95 -18 16 -25 35 -30 82 -10 86 -15 105 -33
112 -28 10 -81 -15 -101 -48 -23 -39 -68 -151 -77 -191 -9 -44 -25 -13 -25 49
0 139 51 235 198 374 63 61 102 105 102 118 0 11 -11 32 -25 47 -33 35 -76 35
-110 -1z"/>
<path d="M2364 9081 c-11 -5 -26 -27 -34 -50 -11 -35 -11 -43 4 -66 9 -14 23
-25 31 -25 8 0 26 -5 40 -12 22 -10 25 -18 26 -62 l0 -51 15 37 c12 27 28 43
60 59 60 29 80 59 64 98 -22 54 -54 75 -123 78 -34 2 -71 -1 -83 -6z"/>
<path d="M7808 8923 c-10 -2 -42 -41 -72 -86 -30 -45 -70 -100 -89 -122 l-35
-40 -55 12 c-30 6 -85 24 -123 39 -62 24 -70 26 -93 13 -18 -10 -29 -28 -35
-57 -11 -53 2 -69 85 -107 48 -21 58 -29 49 -40 -6 -7 -57 -36 -113 -64 -129
-65 -240 -94 -346 -89 -88 3 -89 0 -19 -48 39 -28 46 -29 152 -29 100 0 121 4
204 34 52 18 96 30 99 28 2 -3 -3 -56 -11 -118 -28 -196 -22 -229 51 -310 62
-68 89 -76 164 -48 l27 11 -40 84 c-48 104 -66 185 -75 335 l-6 116 46 32 c52
35 73 38 138 15 56 -21 83 -15 134 29 39 34 39 35 25 62 -17 33 -66 66 -86 58
-24 -9 -15 15 19 54 88 101 100 121 94 169 -7 67 -28 83 -89 67z"/>
<path d="M4905 8554 c-746 -60 -1382 -308 -1950 -760 -141 -113 -416 -388
-529 -529 -603 -756 -863 -1714 -725 -2670 98 -679 401 -1319 868 -1832 1156
-1271 3077 -1498 4501 -532 329 223 657 544 886 869 341 482 543 1019 616
1635 17 144 17 586 -1 730 -53 444 -165 818 -361 1204 -233 459 -552 844 -961
1163 -505 393 -1093 630 -1754 708 -94 11 -503 21 -590 14z m645 -129 c564
-77 1078 -279 1520 -595 1554 -1111 1875 -3277 709 -4785 -494 -640 -1207
-1082 -1999 -1239 -223 -44 -395 -60 -650 -60 -304 0 -550 29 -815 95 -796
200 -1495 687 -1957 1364 -317 464 -506 976 -569 1545 -17 147 -17 542 -1 685
91 796 416 1479 967 2030 565 566 1276 898 2085 975 139 13 573 4 710 -15z"/>
<path d="M4100 7824 c-101 -20 -225 -79 -335 -161 -116 -87 -235 -217 -360
-392 -111 -157 -215 -276 -222 -254 -2 6 12 81 31 165 28 118 47 175 84 251
47 93 48 97 26 97 -29 0 -128 -52 -182 -97 -111 -91 -220 -267 -261 -423 -11
-41 -28 -124 -36 -185 -17 -118 -44 -233 -77 -330 -26 -77 -103 -227 -127
-249 -18 -17 -19 -14 -26 70 -9 102 0 261 19 352 7 34 11 62 9 62 -20 0 -114
-61 -150 -96 -183 -183 -203 -672 -51 -1249 l42 -160 0 -225 c0 -124 -3 -247
-8 -275 l-8 -50 -25 110 c-14 61 -54 191 -89 290 -72 204 -101 316 -110 425
-9 105 -16 113 -49 56 -64 -109 -87 -263 -66 -446 32 -284 130 -530 300 -753
197 -259 222 -295 256 -358 50 -95 145 -349 130 -349 -2 0 -25 28 -53 63 -27
34 -112 128 -189 208 -149 155 -180 195 -241 308 l-39 72 -22 -50 c-71 -167
51 -429 309 -658 142 -125 232 -174 530 -288 194 -74 398 -169 505 -234 81
-50 227 -153 222 -157 -2 -2 -37 14 -78 35 -133 69 -305 128 -576 195 -179 45
-295 82 -355 112 -26 13 -50 24 -53 24 -13 0 -2 -70 19 -115 56 -120 237 -228
536 -318 161 -49 270 -65 513 -77 336 -17 425 -27 712 -85 382 -77 375 -75
285 -109 -25 -10 -74 -33 -110 -53 -73 -39 -369 -235 -370 -244 0 -3 51 -24
113 -47 l114 -41 59 55 c87 81 237 178 365 235 l113 51 56 -23 c161 -65 313
-158 422 -258 l66 -61 117 43 117 44 -168 113 c-151 101 -300 185 -365 204
-23 7 -22 8 14 21 70 26 589 125 706 135 64 5 208 14 321 20 226 11 340 27
475 65 380 108 594 254 595 408 0 20 -2 37 -4 37 -2 0 -37 -16 -79 -35 -44
-21 -178 -61 -325 -100 -282 -73 -427 -122 -562 -189 -115 -57 -100 -37 44 59
163 108 293 172 564 279 362 143 418 174 582 325 191 175 300 367 300 528 0
57 -23 143 -39 143 -3 0 -23 -31 -43 -69 -58 -105 -117 -180 -261 -329 -73
-75 -152 -161 -175 -190 -23 -30 -42 -47 -42 -39 0 32 74 226 121 317 27 52
73 127 102 165 29 39 99 130 154 203 56 74 124 178 151 232 174 341 214 798
85 985 l-27 40 -18 -123 c-20 -145 -36 -204 -116 -428 -33 -93 -70 -214 -82
-269 -11 -54 -22 -101 -24 -103 -2 -1 -6 28 -9 65 -26 290 -17 428 42 663 73
289 96 479 88 730 -7 246 -44 377 -136 481 -38 43 -146 117 -157 107 -2 -3 2
-45 11 -93 15 -90 19 -338 6 -385 -7 -24 -9 -22 -46 35 -81 126 -140 303 -175
530 -24 156 -41 226 -79 316 -64 152 -199 306 -321 368 -55 27 -100 39 -100
27 0 -2 18 -39 39 -82 22 -44 47 -101 56 -129 21 -64 74 -299 69 -304 -10 -11
-113 104 -191 214 -180 251 -265 344 -422 459 -208 152 -446 186 -576 82 l-30
-24 45 -18 c86 -35 221 -104 278 -143 31 -21 109 -86 172 -143 175 -157 240
-206 423 -317 209 -128 273 -176 325 -244 39 -50 102 -173 102 -198 0 -7 -46
33 -102 87 -57 55 -123 114 -148 131 -64 44 -169 95 -180 88 -6 -4 -10 -30
-10 -59 0 -69 55 -183 135 -278 88 -106 253 -247 369 -317 121 -72 211 -160
305 -301 94 -141 132 -271 130 -443 -2 -169 -2 -169 -116 67 -57 117 -112 248
-125 293 -13 46 -27 83 -31 83 -14 0 -56 -103 -73 -179 -21 -94 -15 -212 19
-342 26 -99 50 -153 155 -351 73 -135 104 -242 122 -422 22 -210 -4 -389 -75
-525 -38 -71 -89 -140 -99 -130 -11 11 -27 196 -21 249 4 30 16 109 27 175 15
88 19 147 15 220 -5 94 -38 260 -57 278 -10 12 -53 -46 -84 -113 -48 -105 -60
-180 -60 -375 0 -179 0 -181 41 -340 22 -88 44 -187 47 -220 16 -151 -63 -366
-174 -475 -49 -48 -178 -135 -187 -126 -2 1 22 41 54 87 121 180 203 412 203
572 0 53 -19 139 -38 173 -12 21 -10 23 -32 -51 -20 -66 -96 -204 -162 -295
-238 -328 -231 -316 -331 -530 -64 -138 -126 -195 -309 -286 -231 -115 -370
-158 -728 -224 -124 -23 -300 -61 -391 -84 -124 -32 -172 -40 -195 -34 -133
38 -341 85 -566 127 -334 64 -470 106 -692 218 -189 95 -249 158 -332 348 -51
116 -112 213 -246 393 -114 152 -174 254 -208 352 l-28 82 -15 -29 c-80 -154
-4 -474 175 -741 31 -45 52 -82 48 -82 -23 0 -195 127 -222 164 -46 63 -105
185 -123 257 -26 99 -16 231 30 404 34 127 38 155 43 300 6 234 -31 403 -110
499 -37 46 -39 44 -70 -81 -29 -122 -29 -269 1 -438 19 -104 22 -149 17 -225
-7 -107 -15 -150 -26 -150 -5 0 -30 33 -57 73 -94 141 -133 330 -113 553 22
232 45 311 157 516 41 75 85 167 99 206 73 212 72 408 -5 560 l-29 57 -11 -45
c-28 -105 -57 -180 -125 -313 -39 -78 -82 -167 -95 -197 l-24 -55 -9 65 c-10
77 -2 220 18 299 43 169 225 421 360 500 121 70 192 123 296 221 175 165 258
294 261 404 1 30 -2 58 -5 62 -10 9 -107 -38 -178 -86 -33 -23 -106 -85 -162
-138 -110 -106 -115 -103 -46 30 57 111 135 181 352 312 210 128 259 164 390
282 220 198 275 235 459 315 111 48 111 48 12 95 -50 23 -162 38 -215 28z"/>
<path d="M3712 5699 c4 -1104 5 -1201 22 -1289 36 -185 119 -377 252 -577 212
-320 518 -532 1011 -700 l132 -45 83 28 c337 111 615 259 806 427 228 201 425
531 495 832 21 88 21 112 24 1303 l4 1212 -88 0 c-228 -1 -649 -21 -748 -35
-251 -35 -418 -98 -549 -208 l-30 -24 -53 43 c-66 54 -193 116 -293 144 -178
49 -353 66 -783 76 l-288 6 3 -1193z m733 1090 c195 -19 340 -51 455 -99 64
-28 177 -98 203 -128 18 -20 18 -20 84 29 202 153 460 208 1003 212 l245 2 0
-85 0 -85 -300 -6 c-328 -8 -508 -27 -671 -75 -106 -30 -227 -92 -289 -146
l-45 -40 -42 35 c-68 55 -141 96 -227 127 -186 68 -350 90 -738 97 l-303 6 0
90 0 90 263 -7 c144 -4 307 -11 362 -17z m-162 -269 c291 -16 476 -49 619
-110 71 -30 170 -94 202 -128 l18 -21 47 38 c188 158 472 220 1016 224 l250 2
0 -70 0 -70 -275 -6 c-151 -4 -322 -12 -380 -18 -284 -32 -473 -95 -603 -203
l-47 -39 -63 46 c-204 154 -503 215 -1054 215 l-193 0 0 75 0 75 143 0 c78 0
222 -5 320 -10z m167 -290 c302 -30 506 -98 630 -208 l44 -39 56 45 c109 90
304 161 525 191 114 16 393 31 578 31 l157 0 0 -60 0 -60 -162 0 c-320 0 -606
-26 -783 -71 -101 -26 -244 -93 -312 -147 -29 -23 -55 -42 -58 -42 -4 0 -27
18 -53 39 -177 147 -437 205 -979 218 l-273 6 0 60 0 60 263 -6 c144 -4 309
-11 367 -17z m42 -285 c165 -19 284 -46 385 -84 84 -33 184 -92 217 -129 11
-12 23 -22 28 -22 5 0 32 19 61 42 111 88 310 160 522 187 127 17 386 31 568
31 l167 0 0 -572 c-1 -846 -12 -992 -93 -1191 l-33 -82 -1186 -3 -1185 -2 -31
73 c-38 91 -68 206 -81 317 -7 52 -11 352 -11 774 l0 689 273 -6 c149 -4 329
-13 399 -22z m506 -2049 c39 -20 57 -60 56 -121 -2 -92 -55 -153 -140 -163
-42 -4 -44 -3 -44 22 0 22 4 26 28 26 31 0 67 22 81 49 9 16 6 18 -38 13 -40
-3 -52 -1 -70 17 -45 45 -34 117 23 152 37 23 67 24 104 5z m661 3 c52 -18 66
-66 30 -105 l-20 -22 25 -25 c65 -65 0 -144 -111 -135 -61 5 -64 7 -57 34 4
17 13 20 56 19 37 0 53 5 62 18 16 25 -4 51 -43 55 -25 3 -31 8 -31 27 0 18 6
24 26 27 32 4 50 28 40 53 -5 15 -14 17 -50 12 -35 -5 -45 -3 -50 10 -8 19 -7
19 24 32 34 13 61 13 99 0z m-989 -145 l0 -145 -32 3 -33 3 -5 117 c-4 101 -7
116 -20 108 -24 -16 -40 -11 -40 10 0 25 48 49 98 50 l32 0 0 -146z m710 122
c0 -23 -4 -25 -52 -28 -46 -3 -53 -6 -56 -25 -3 -20 1 -23 27 -23 46 0 91 -43
91 -88 -1 -63 -47 -102 -122 -102 -51 0 -71 11 -66 36 3 15 11 18 49 15 103
-6 108 85 5 96 l-47 6 6 41 c16 104 8 96 91 96 72 0 74 -1 74 -24z"/>
<path d="M4058 5188 c-2 -35 -6 -42 -20 -40 -17 3 -18 -10 -18 -160 l0 -163
1105 0 1105 0 0 161 c0 148 -1 162 -17 160 -14 -1 -19 8 -21 42 l-3 42 -1064
0 -1064 0 -3 -42z m950 -76 c2 -7 -3 -12 -12 -12 -9 0 -16 7 -16 16 0 17 22
14 28 -4z m860 0 c2 -7 -2 -10 -12 -6 -9 3 -16 11 -16 16 0 13 23 5 28 -10z
m-599 -22 c15 0 14 -13 -1 -29 -11 -10 -9 -11 7 -6 19 6 19 6 1 -9 -19 -16
-14 -36 10 -36 8 0 14 -5 14 -11 0 -6 -9 -9 -19 -6 -13 3 -21 -1 -24 -14 -3
-11 -10 -19 -17 -19 -7 0 -9 8 -5 20 3 11 2 20 -3 20 -6 0 -12 -5 -14 -12 -2
-6 -10 -8 -17 -4 -9 6 -9 11 0 22 9 11 9 17 -1 29 -16 20 -6 19 14 -1 15 -14
16 -14 16 5 0 11 -9 22 -20 26 -11 4 -18 11 -14 16 3 6 12 8 20 5 9 -4 14 2
14 17 1 20 2 21 14 5 7 -10 18 -18 25 -18z m16 20 c3 -5 1 -10 -4 -10 -6 0
-11 5 -11 10 0 6 2 10 4 10 3 0 8 -4 11 -10z m170 -27 c0 -16 5 -39 9 -52 6
-18 5 -22 -4 -16 -8 5 -11 3 -8 -6 3 -8 14 -15 26 -17 24 -4 30 -22 7 -22 -8
0 -26 5 -40 12 -21 9 -31 9 -46 0 -26 -16 -32 -15 -25 4 4 9 1 23 -5 31 -10
11 -8 15 9 20 17 4 22 13 22 39 0 19 5 34 10 34 6 0 10 -4 10 -10 0 -5 5 -10
10 -10 6 0 9 3 9 8 -3 15 1 25 8 19 3 -4 7 -19 8 -34z m245 7 c0 -11 5 -20 10
-20 6 0 13 0 18 -1 4 0 10 10 14 23 3 13 6 -8 6 -47 -1 -38 -3 -60 -5 -47 -3
15 -11 22 -26 21 -12 0 -16 -3 -9 -6 18 -7 15 -31 -5 -36 -10 -2 -31 -5 -48
-6 -21 0 -26 2 -16 8 13 9 17 21 25 76 6 48 36 77 36 35z m-1282 -64 c3 -73
-6 -96 -29 -74 -8 7 -27 14 -42 15 -16 0 -30 3 -31 4 -8 10 -12 99 -5 99 5 0
9 -4 9 -10 0 -5 6 -10 13 -10 16 0 19 30 3 31 -22 1 27 15 52 14 26 0 27 -2
30 -69z m112 39 c-12 -14 -6 -35 10 -35 5 0 7 7 4 15 -4 8 -1 15 5 15 6 0 11
9 11 20 0 27 13 25 27 -5 8 -19 8 -25 0 -25 -7 0 -5 -5 3 -10 13 -9 13 -11 0
-20 -10 -6 -11 -10 -2 -10 6 0 12 -9 12 -20 0 -16 -7 -20 -35 -20 -21 0 -35 5
-35 13 0 6 -5 4 -11 -5 -17 -30 -25 -20 -24 31 0 34 7 56 20 71 21 23 35 9 15
-15z m296 18 c16 -22 17 -33 3 -33 -5 0 -7 5 -3 12 4 7 3 8 -4 4 -18 -11 -14
-43 4 -50 14 -5 15 -4 5 8 -9 11 -8 15 4 20 8 3 16 18 16 33 1 21 3 23 6 8 3
-11 9 -24 13 -29 5 -5 3 -17 -3 -27 -9 -14 -7 -22 7 -38 20 -22 12 -28 -14
-12 -8 6 -19 7 -25 3 -5 -4 -27 -8 -48 -8 -33 -1 -37 1 -32 17 4 11 8 31 9 46
2 15 8 29 15 31 9 3 9 7 0 18 -9 11 -7 14 11 14 13 0 29 -8 36 -17z m1058 -9
c-6 -24 -5 -25 13 -15 11 5 22 9 24 6 8 -8 -3 -105 -13 -105 -5 0 -7 9 -3 20
3 11 2 27 -3 36 -9 15 -10 15 -17 -6 -6 -18 -9 -20 -16 -9 -7 11 -9 10 -9 -3
0 -19 -8 -22 -34 -12 -21 8 -20 24 2 25 15 0 14 1 -2 8 -18 7 -18 8 4 14 24 6
24 7 8 24 -17 16 -16 18 15 29 17 6 33 12 35 13 1 0 -1 -11 -4 -25z m-859 -6
c-6 -17 -4 -20 9 -15 20 8 21 -6 1 -23 -8 -7 -15 -28 -15 -46 0 -33 -12 -45
-25 -24 -3 6 -1 10 4 10 6 0 11 5 11 10 0 15 -21 12 -42 -7 -10 -9 -21 -13
-24 -10 -4 3 7 17 22 32 17 14 22 23 12 19 -15 -5 -18 0 -18 29 0 37 9 45 48
46 19 1 22 -3 17 -21z"/>
<path d="M5725 5040 c3 -5 8 -10 11 -10 2 0 4 5 4 10 0 6 -5 10 -11 10 -5 0
-7 -4 -4 -10z"/>
<path d="M4390 5070 c0 -5 5 -10 10 -10 6 0 10 5 10 10 0 6 -4 10 -10 10 -5 0
-10 -4 -10 -10z"/>
<path d="M4396 5023 c-6 -14 -5 -15 5 -6 7 7 10 15 7 18 -3 3 -9 -2 -12 -12z"/>
<path d="M4393 4980 c1 -11 5 -20 9 -20 4 0 8 9 8 20 0 11 -4 20 -9 20 -6 0
-9 -9 -8 -20z"/>
<path d="M4328 4983 c7 -3 16 -2 19 1 4 3 -2 6 -13 5 -11 0 -14 -3 -6 -6z"/>
<path d="M4558 4983 c7 -3 16 -2 19 1 4 3 -2 6 -13 5 -11 0 -14 -3 -6 -6z"/>
<path d="M4996 5043 c-6 -14 -5 -15 5 -6 7 7 10 15 7 18 -3 3 -9 -2 -12 -12z"/>
<path d="M4057 4803 c-4 -3 -7 -134 -7 -290 l0 -283 110 0 110 0 2 243 3 242
168 3 167 2 0 -245 0 -245 115 0 115 0 2 243 3 242 288 3 287 2 0 -245 0 -245
115 0 115 0 2 243 3 242 158 3 157 3 0 -246 0 -245 115 0 115 0 0 253 c0 138
-3 269 -6 290 l-7 37 -103 0 -103 0 -4 -27 -4 -28 -2 28 -1 28 -157 -3 -157
-3 -7 -25 -7 -25 -1 28 -1 27 -104 0 -105 0 -4 -27 -4 -28 -2 28 -1 27 -289 0
-290 0 -4 -27 -4 -28 -2 28 -1 27 -104 0 -105 0 -4 -27 -4 -28 -2 28 -1 27
-165 0 -165 0 0 -26 c0 -14 -4 -23 -10 -19 -5 3 -10 15 -10 26 0 17 -8 19 -98
19 -54 0 -102 -3 -105 -7z"/>
<path d="M4050 4183 l0 -33 110 0 110 0 0 29 0 30 -110 3 -110 3 0 -32z"/>
<path d="M4718 4213 l-108 -4 0 -29 0 -30 115 0 115 0 0 35 c0 19 -3 34 -7 33
-5 -1 -56 -4 -115 -5z"/>
<path d="M5424 4211 c-2 -2 -4 -17 -4 -33 l0 -28 115 0 115 0 0 29 0 30 -111
3 c-61 2 -113 1 -115 -1z"/>
<path d="M5974 4211 c-2 -2 -4 -17 -4 -33 l0 -28 115 0 115 0 0 29 0 30 -111
3 c-61 2 -113 1 -115 -1z"/>
<path d="M4914 3835 c-3 -14 -3 -37 0 -51 6 -21 11 -25 39 -22 26 2 33 8 35
30 5 39 -14 68 -43 68 -18 0 -26 -7 -31 -25z"/>
<path d="M1595 7801 c-80 -48 -134 -139 -171 -286 -9 -36 -21 -65 -26 -65 -19
0 -58 57 -73 105 -15 47 -14 53 6 107 25 66 20 100 -16 124 -34 22 -69 11 -85
-26 -15 -36 -15 -35 -40 -10 -42 42 -120 38 -172 -9 -43 -38 -34 -73 25 -99
25 -11 61 -41 86 -71 l44 -52 -7 -73 c-5 -60 -4 -75 9 -86 17 -14 67 -17 100
-6 17 5 26 -4 56 -56 44 -76 51 -105 50 -185 -1 -72 10 -107 47 -146 31 -32
144 -106 248 -162 63 -33 76 -37 116 -31 34 5 50 14 67 37 22 30 22 31 4 51
-21 23 -54 42 -111 61 -61 21 -262 137 -262 151 0 7 7 27 16 45 14 28 15 42 5
94 -7 34 -14 76 -17 92 l-6 30 24 -27 c15 -18 35 -28 57 -30 31 -3 35 -8 53
-58 12 -30 25 -61 31 -67 13 -18 42 -16 57 2 20 24 26 19 45 -40 20 -58 35
-71 65 -55 16 9 39 64 40 95 0 6 4 16 9 23 6 10 27 0 87 -41 118 -81 214 -132
214 -114 0 8 -26 34 -57 58 -81 60 -153 123 -153 132 0 4 10 11 23 16 16 6 26
3 39 -11 15 -17 21 -18 51 -9 53 18 71 43 69 100 0 27 -8 65 -16 85 -47 114
-215 310 -329 386 -52 35 -67 40 -116 40 -37 0 -66 -6 -86 -19z m169 -92 c84
-56 232 -233 270 -324 24 -57 20 -69 -35 -119 -50 -45 -52 -46 -71 -29 -11 10
-29 35 -39 55 -15 29 -27 39 -53 44 -45 8 -56 0 -56 -39 0 -57 -20 -14 -27 57
-5 55 -10 70 -31 86 -15 12 -33 18 -46 14 -17 -4 -25 2 -39 31 -19 41 -54 60
-91 51 -33 -8 -33 -31 -1 -92 34 -64 32 -74 -10 -74 -21 0 -35 -5 -36 -12 0
-7 -5 -2 -10 12 -13 31 3 139 32 217 14 38 38 74 69 106 60 60 101 64 174 16z"/>
<path d="M8890 7744 c-78 -36 -100 -59 -100 -105 0 -52 18 -89 44 -89 20 0 64
23 120 64 33 23 62 15 46 -13 -5 -11 -10 -38 -10 -61 0 -45 0 -45 -71 -24 -8
2 -23 -2 -34 -10 -18 -13 -18 -14 5 -26 12 -7 93 -39 179 -72 86 -32 172 -70
192 -84 43 -29 78 -31 112 -4 47 37 40 105 -16 139 -17 11 -21 10 -29 -3 -11
-20 -43 -20 -149 0 -131 24 -130 23 -77 50 79 40 103 101 50 128 -19 10 -47
13 -95 9 -37 -3 -67 -2 -67 2 0 4 11 20 25 37 31 36 31 52 3 72 -32 22 -65 20
-128 -10z"/>
<path d="M8460 7668 c-67 -25 -90 -44 -90 -74 0 -30 20 -74 34 -74 6 0 53 19
104 42 92 41 94 43 88 72 -13 62 -43 69 -136 34z"/>
<path d="M8700 7520 c34 -41 63 -60 155 -105 88 -43 130 -71 187 -124 116
-109 133 -160 59 -176 -31 -7 -134 24 -190 56 -18 11 -36 17 -39 14 -10 -10
53 -89 96 -119 32 -22 56 -31 100 -34 51 -4 62 -1 88 21 24 21 29 32 28 69 -3
129 -171 289 -431 409 -46 22 -86 39 -89 39 -3 0 13 -22 36 -50z"/>
<path d="M8256 7438 c-39 -56 -8 -109 110 -189 84 -57 144 -107 144 -121 0
-19 -113 -61 -180 -66 -60 -4 -70 -2 -90 18 -20 20 -22 30 -17 86 5 70 -3 73
-33 13 -11 -21 -25 -39 -30 -39 -17 0 -29 -69 -18 -101 30 -87 223 -91 378 -8
l55 30 42 -48 c37 -43 53 -71 84 -150 7 -18 16 -23 44 -23 53 0 85 36 85 94 0
50 -10 65 -117 178 -35 36 -63 72 -63 79 0 9 23 10 99 6 l99 -7 12 36 c17 50
7 76 -46 119 -57 47 -80 40 -77 -23 1 -37 -1 -40 -29 -46 -17 -3 -46 -6 -65
-6 -19 0 -42 -4 -52 -9 -13 -7 -28 -1 -62 26 -47 38 -245 173 -253 173 -3 0
-12 -10 -20 -22z"/>
<path d="M8905 6174 c4 -22 13 -44 20 -49 7 -6 54 -19 104 -29 51 -11 93 -22
96 -26 2 -3 -32 -37 -76 -74 -79 -67 -81 -69 -74 -105 4 -20 10 -40 15 -45 5
-5 60 38 124 97 109 98 121 106 184 121 37 10 83 21 103 27 l37 9 -10 40 c-8
30 -15 39 -27 36 -9 -3 -54 -14 -99 -26 l-84 -21 -136 36 c-76 19 -147 38
-160 41 -22 6 -23 5 -17 -32z"/>
<path d="M806 6088 c-4 -19 -2 -34 4 -38 6 -4 68 -17 138 -30 70 -13 136 -26
147 -30 25 -10 33 -6 -164 -64 -85 -25 -157 -48 -161 -53 -4 -4 -10 -24 -14
-43 l-6 -35 242 -47 c133 -26 243 -46 245 -44 2 2 6 19 9 38 l6 34 -149 28
c-81 15 -155 30 -163 33 -8 3 66 29 165 57 l180 53 9 36 c5 20 7 39 4 42 -6 6
-444 95 -469 95 -11 0 -19 -12 -23 -32z"/>
<path d="M9313 5856 c-45 -6 -84 -14 -86 -16 -5 -6 17 -168 24 -174 2 -2 20
-1 40 1 l36 5 -5 48 c-4 47 -3 49 23 56 24 6 33 2 56 -24 79 -88 25 -189 -113
-211 -73 -12 -137 1 -165 34 -44 50 -42 108 4 151 23 21 25 28 17 56 -13 45
-33 45 -84 0 -43 -38 -44 -41 -48 -108 -4 -83 22 -145 77 -181 99 -66 270 -51
368 31 84 71 81 222 -7 316 -16 17 -34 29 -42 29 -7 -1 -50 -7 -95 -13z"/>
<path d="M730 5667 c0 -43 1 -43 50 -61 28 -10 52 -21 54 -25 5 -8 -12 -162
-18 -169 -3 -2 -29 -10 -58 -17 -53 -11 -53 -12 -56 -53 -3 -35 0 -42 15 -42
10 1 124 27 253 58 l235 58 6 42 c4 35 2 45 -12 53 -35 18 -452 199 -460 199
-5 0 -9 -19 -9 -43z m353 -197 c-4 -4 -35 -12 -68 -19 -33 -6 -70 -14 -82 -17
-22 -6 -23 -3 -23 48 0 30 2 57 5 60 3 3 44 -10 91 -30 46 -19 81 -38 77 -42z"/>
<path d="M9192 5375 c-54 -17 -107 -57 -129 -98 -22 -43 -22 -142 1 -185 54
-105 241 -143 382 -78 163 75 143 310 -30 361 -61 18 -166 18 -224 0z m219
-90 c40 -21 59 -53 59 -100 0 -46 -31 -85 -83 -104 -36 -14 -147 -14 -182 -1
-99 38 -101 178 -2 209 75 23 157 22 208 -4z"/>
<path d="M867 5213 c-157 -3 -178 -5 -173 -19 3 -9 6 -25 6 -37 0 -22 2 -22
162 -19 89 2 160 1 157 -3 -3 -3 -75 -42 -160 -88 l-154 -83 -3 -42 -3 -42
250 0 251 0 0 41 0 41 -165 -4 c-91 -1 -165 -1 -165 2 0 3 72 42 160 88 l160
83 0 45 0 44 -72 -2 c-40 -1 -153 -4 -251 -5z"/>
<path d="M9470 4910 c-5 -63 -19 -202 -22 -204 -1 -2 -92 4 -200 12 -109 9
-199 14 -201 11 -2 -2 -7 -20 -10 -40 l-5 -36 226 -17 c125 -9 236 -18 247
-19 18 -2 21 6 27 73 3 41 9 107 12 146 l7 72 -41 4 c-22 2 -40 1 -40 -2z"/>
<path d="M784 4786 c-69 -30 -93 -107 -58 -182 23 -48 59 -64 144 -64 62 0
351 27 357 34 1 1 0 19 -4 39 -7 43 6 41 -173 22 -74 -8 -159 -15 -188 -15
-47 0 -54 3 -64 26 -15 32 -2 55 38 69 16 5 30 10 32 11 2 1 0 18 -3 38 -8 40
-26 45 -81 22z"/>
<path d="M9095 4541 c-78 -36 -115 -95 -115 -182 0 -111 84 -185 235 -209 167
-27 281 59 273 206 -4 70 -32 116 -93 154 -81 50 -227 65 -300 31z m178 -76
c71 -18 103 -39 123 -78 21 -40 11 -87 -27 -123 -28 -27 -36 -29 -107 -28 -82
0 -138 21 -177 64 -30 33 -27 101 4 134 42 45 96 54 184 31z"/>
<path d="M1010 4454 c-107 -18 -210 -36 -228 -39 -33 -6 -34 -7 -27 -43 4 -20
8 -38 10 -40 4 -4 476 76 482 82 3 3 2 21 -1 41 -5 24 -12 35 -24 34 -9 -1
-105 -16 -212 -35z"/>
<path d="M1020 4280 l-235 -57 3 -29 c2 -16 7 -32 11 -37 4 -4 74 9 156 28 81
20 149 34 151 33 1 -2 -58 -57 -132 -122 -130 -114 -135 -120 -128 -150 3 -17
10 -35 14 -40 4 -4 114 18 245 49 l236 58 -7 31 c-3 17 -8 34 -10 37 -2 4 -74
-11 -160 -33 -86 -21 -158 -37 -160 -35 -2 1 46 45 107 97 60 52 124 107 140
121 27 24 30 31 24 63 -4 20 -10 38 -14 39 -3 2 -112 -22 -241 -53z"/>
<path d="M8935 4128 c-3 -7 -6 -24 -7 -37 -3 -23 5 -27 150 -69 84 -25 150
-47 147 -50 -2 -3 -82 -20 -176 -38 -95 -18 -176 -37 -182 -43 -5 -5 -10 -23
-10 -41 l-2 -32 230 -68 c127 -37 233 -65 237 -61 4 4 10 20 14 37 l6 29 -151
44 c-83 24 -150 46 -148 48 3 2 80 19 173 38 92 19 171 38 175 42 3 5 11 23
17 41 9 25 8 34 -1 37 -9 3 -250 74 -450 131 -9 3 -19 -1 -22 -8z"/>
<path d="M1113 3868 c-206 -81 -230 -282 -51 -417 15 -11 32 -8 113 19 52 19
95 36 95 39 -1 12 -56 162 -61 163 -12 4 -69 -23 -69 -32 0 -6 7 -26 15 -46
14 -34 14 -35 -11 -44 -39 -15 -48 -13 -81 23 -39 41 -49 86 -29 126 31 59
130 111 212 111 39 0 51 -5 80 -34 41 -41 47 -97 14 -139 -19 -24 -19 -26 -3
-56 10 -17 23 -31 29 -31 13 0 57 47 73 77 38 75 -20 214 -106 249 -48 21
-158 16 -220 -8z"/>
<path d="M8804 3715 c-8 -20 -14 -39 -12 -40 2 -2 39 -17 83 -35 44 -17 83
-35 87 -39 6 -5 -43 -141 -56 -158 0 -1 -39 14 -85 33 -46 19 -88 33 -93 32
-6 -2 -16 -18 -24 -36 -13 -31 -12 -33 9 -41 63 -25 421 -173 428 -177 8 -5
39 47 39 65 0 8 -79 44 -173 80 l-26 10 26 63 c43 107 32 102 121 64 124 -53
120 -53 138 -11 8 21 14 38 12 39 -3 2 -414 171 -446 183 -7 3 -18 -10 -28
-32z"/>
<path d="M1415 3296 c-82 -46 -164 -97 -182 -114 -55 -54 -56 -122 -3 -206 36
-56 85 -81 139 -71 32 6 326 151 358 177 10 8 9 17 -4 42 -8 17 -17 33 -19 35
-1 2 -70 -33 -151 -77 -158 -86 -189 -98 -222 -87 -25 8 -51 54 -51 90 0 38
30 61 194 149 81 43 145 81 144 85 -2 3 -10 18 -17 34 -8 15 -19 27 -25 26 -6
0 -78 -37 -161 -83z"/>
<path d="M8660 3319 c-86 -35 -126 -158 -80 -248 55 -110 240 -195 346 -161
128 41 166 199 68 291 l-24 23 -30 -29 c-30 -28 -30 -29 -11 -49 47 -53 49
-96 4 -138 -35 -32 -92 -29 -169 10 -103 52 -146 122 -113 184 13 24 69 49 96
42 21 -6 33 16 33 64 0 20 -5 22 -47 21 -27 0 -59 -5 -73 -10z"/>
<path d="M1572 2885 c-107 -73 -196 -136 -199 -138 -3 -3 5 -19 17 -35 l23
-30 121 82 c66 46 127 86 134 91 16 8 12 1 -89 -187 l-69 -127 21 -36 c12 -19
23 -35 25 -35 6 0 387 260 401 273 9 9 6 19 -11 40 l-23 28 -133 -91 c-73 -50
-134 -89 -135 -88 -2 2 35 73 81 158 46 85 83 162 83 170 0 17 -33 60 -46 59
-4 0 -95 -61 -201 -134z"/>
<path d="M8382 2899 c-46 -67 -84 -125 -85 -130 -2 -7 390 -279 403 -279 8 0
185 259 179 263 -18 15 -55 37 -61 37 -4 0 -35 -42 -69 -92 -34 -51 -63 -94
-65 -96 -3 -4 -114 69 -114 75 0 2 23 37 50 78 66 98 66 99 31 124 l-30 21
-58 -85 c-32 -46 -61 -85 -66 -85 -11 0 -87 52 -87 60 0 4 28 47 61 95 l62 89
-29 23 c-16 13 -31 23 -34 23 -3 0 -43 -55 -88 -121z"/>
<path d="M8162 2606 c-56 -69 -102 -129 -102 -134 0 -4 13 -18 29 -30 l29 -21
37 44 c20 25 40 45 44 45 4 0 76 -56 159 -125 83 -69 155 -125 160 -125 5 0
18 13 30 29 l22 30 -160 131 -160 132 39 47 40 48 -27 26 c-16 15 -30 27 -33
27 -2 0 -50 -56 -107 -124z"/>
<path d="M1845 2554 c-93 -75 -181 -144 -193 -155 l-24 -18 22 -31 c12 -16 24
-30 28 -30 6 0 359 275 384 299 5 4 -4 21 -20 39 l-27 31 -170 -135z"/>
<path d="M1955 2384 c-71 -119 -131 -222 -133 -228 -1 -7 11 -25 27 -40 l30
-29 231 108 c126 60 230 111 230 114 0 3 -11 20 -24 36 l-24 30 -167 -83 c-92
-46 -169 -81 -171 -80 -2 2 39 73 91 158 52 85 95 157 95 160 0 3 -12 20 -27
38 l-28 33 -130 -217z"/>
<path d="M2224 2128 c-81 -90 -157 -174 -168 -187 l-21 -23 41 -37 c23 -20 76
-67 118 -105 l77 -69 24 23 c14 13 25 28 24 34 0 6 -38 44 -84 85 l-84 74 46
53 46 53 79 -71 79 -71 30 29 30 29 -22 18 c-12 10 -49 42 -81 72 l-59 55 39
42 40 42 83 -77 84 -77 29 30 c17 16 28 31 25 32 -2 2 -54 50 -116 106 l-111
103 -148 -163z"/>
<path d="M7793 2220 c-43 -26 -67 -73 -59 -115 8 -39 61 -90 104 -99 28 -7 28
-8 24 -60 -11 -138 127 -222 233 -141 40 30 65 72 65 110 0 23 3 25 45 25 48
0 50 3 39 59 -6 30 -8 31 -45 25 -38 -6 -39 -6 -58 39 -24 55 -32 61 -65 46
-29 -13 -31 -21 -16 -50 13 -23 7 -24 -55 -8 l-43 11 2 47 c1 57 -15 91 -54
114 -37 22 -78 21 -117 -3z m97 -69 c17 -34 13 -71 -10 -71 -27 0 -68 20 -74
37 -17 44 61 76 84 34z m153 -192 c30 -8 37 -14 37 -35 0 -29 -41 -74 -68 -74
-31 0 -71 38 -78 75 -11 59 -1 62 109 34z"/>
<path d="M2584 1947 c-33 -45 -98 -133 -144 -196 l-84 -114 29 -23 c17 -13 32
-24 35 -24 3 0 30 34 60 76 29 41 58 78 63 81 5 3 19 -5 33 -18 28 -26 30 -55
13 -176 l-11 -78 39 -32 38 -32 8 27 c5 15 9 73 10 128 l2 102 52 -5 c52 -6
54 -5 97 38 53 54 67 103 43 155 -15 31 -190 174 -213 174 -5 0 -36 -37 -70
-83z m149 -72 c33 -26 57 -53 57 -64 0 -30 -39 -71 -67 -71 -26 0 -123 64
-123 81 0 11 62 98 70 99 3 0 31 -20 63 -45z"/>
<path d="M7368 1872 c-70 -48 -125 -92 -123 -99 2 -6 65 -100 140 -208 94
-135 141 -193 149 -187 6 5 64 46 129 91 64 45 117 85 117 88 0 3 -9 18 -21
34 l-21 29 -94 -65 c-52 -37 -99 -63 -104 -60 -13 8 -70 91 -70 102 0 4 38 34
85 66 l85 58 -20 30 c-12 16 -26 29 -31 29 -5 0 -46 -25 -90 -56 -44 -31 -84
-53 -88 -48 -4 5 -19 26 -34 46 l-27 37 95 66 95 67 -22 31 c-12 18 -22 33
-23 34 0 1 -58 -37 -127 -85z"/>
<path d="M2992 1753 c-34 -7 -90 -68 -97 -107 -11 -55 2 -88 60 -158 34 -40
55 -76 55 -91 0 -56 -77 -76 -127 -33 -24 21 -28 31 -27 74 2 47 0 50 -31 65
l-33 16 -11 -31 c-18 -51 -13 -112 12 -149 32 -48 121 -92 171 -86 75 10 136
79 136 154 0 54 -9 72 -72 144 -54 63 -63 104 -25 118 48 18 107 -25 107 -78
0 -30 5 -40 31 -55 39 -23 50 -13 56 51 3 36 -1 56 -16 80 -34 54 -129 98
-189 86z"/>
<path d="M7066 1686 c-85 -31 -136 -118 -122 -209 9 -56 55 -154 95 -200 94
-107 260 -98 312 16 31 69 23 147 -15 147 -51 0 -62 -9 -58 -46 7 -55 -5 -83
-42 -101 -62 -29 -122 6 -173 104 -42 79 -48 114 -28 156 26 56 77 71 131 38
l32 -19 26 27 c14 15 26 30 26 34 0 14 -76 56 -110 61 -20 3 -52 0 -74 -8z"/>
<path d="M3205 1392 c-60 -119 -111 -220 -113 -224 -4 -8 65 -44 72 -37 2 2
53 102 113 222 l110 218 -36 19 -37 18 -109 -216z"/>
<path d="M3407 1510 l-15 -39 54 -21 c30 -12 54 -28 54 -34 0 -7 -34 -90 -75
-186 -41 -96 -75 -177 -75 -182 0 -13 62 -40 70 -31 4 4 42 89 85 188 42 99
78 181 79 183 2 1 29 -8 60 -22 l56 -25 14 32 c17 40 18 38 50 -139 l26 -141
-30 -88 c-17 -49 -30 -94 -30 -101 0 -10 71 -40 75 -31 0 1 14 44 30 95 l29
93 119 117 118 117 -28 12 c-53 23 -67 16 -138 -62 -37 -41 -70 -73 -74 -70
-4 2 -13 44 -20 92 -17 120 -17 120 -59 134 -20 6 -95 36 -167 67 -71 30 -144
61 -161 68 -31 13 -31 13 -47 -26z"/>
<path d="M6773 1528 c-13 -6 -23 -15 -23 -20 0 -5 27 -72 60 -150 33 -78 59
-143 57 -144 -1 -2 -52 38 -112 88 -181 149 -169 142 -210 128 -19 -6 -35 -15
-35 -19 0 -13 181 -435 190 -445 7 -7 70 10 70 19 0 2 -27 67 -61 145 -33 78
-59 143 -57 145 2 2 66 -47 142 -109 l139 -113 38 16 c22 9 38 19 36 22 -46
119 -194 449 -202 448 -5 0 -20 -5 -32 -11z"/>
<path d="M6297 1345 c-77 -24 -141 -46 -144 -49 -3 -3 27 -111 67 -239 l73
-235 26 8 c109 32 267 83 272 89 10 10 -10 71 -23 71 -6 0 -53 -13 -105 -30
-51 -16 -99 -30 -106 -30 -7 0 -19 21 -26 48 -7 26 -15 55 -18 64 -4 13 14 22
97 48 80 25 100 35 96 47 -3 8 -9 26 -12 40 -4 13 -12 22 -18 20 -31 -12 -178
-57 -186 -57 -8 0 -45 99 -39 104 2 2 52 18 110 36 l106 32 -11 39 c-5 21 -13
39 -16 38 -3 0 -67 -20 -143 -44z"/>
<path d="M6028 1273 c-18 -3 -28 -10 -28 -21 1 -23 106 -461 113 -468 11 -12
72 13 71 29 -5 54 -109 467 -118 466 -6 -1 -23 -4 -38 -6z"/>
<path d="M4375 1228 c-51 -11 -107 -65 -136 -132 -31 -70 -38 -191 -15 -251
40 -103 161 -152 261 -106 82 38 126 120 133 247 7 121 -21 185 -96 223 -48
24 -97 30 -147 19z m105 -91 c55 -27 74 -117 45 -215 -27 -89 -82 -129 -152
-110 -50 13 -77 59 -77 133 0 149 88 240 184 192z"/>
<path d="M5739 1220 c-80 -24 -129 -103 -129 -211 0 -77 27 -174 59 -216 75
-95 225 -98 287 -6 24 36 40 102 27 113 -4 4 -22 10 -40 13 -30 6 -33 4 -39
-28 -14 -76 -90 -110 -147 -65 -50 40 -82 195 -54 263 30 71 113 82 163 20
l20 -25 37 19 38 19 -31 43 c-46 62 -114 85 -191 61z"/>
<path d="M4709 1178 c0 -7 -8 -119 -18 -248 -10 -129 -17 -236 -17 -237 1 0
19 -3 41 -5 l40 -3 7 90 c4 50 9 96 10 104 2 11 17 14 63 13 33 -2 72 -5 88
-8 26 -5 27 -4 27 40 l0 46 -62 0 c-103 0 -108 3 -108 66 0 35 5 56 13 59 6 3
54 1 105 -3 67 -6 92 -5 92 4 0 6 3 25 6 41 l6 30 -129 7 c-70 4 -136 10 -145
12 -11 3 -18 0 -19 -8z"/>
<path d="M5280 1158 c-77 -51 -89 -151 -26 -214 22 -22 51 -36 101 -49 93 -24
115 -38 115 -75 0 -56 -85 -91 -136 -55 -12 8 -27 28 -34 45 -12 28 -15 30
-49 24 -20 -4 -38 -8 -40 -10 -10 -9 32 -93 59 -119 26 -25 41 -30 95 -33 82
-5 145 22 169 72 22 47 20 124 -4 163 -23 38 -55 56 -140 78 -97 25 -128 65
-78 99 47 33 113 15 130 -34 4 -12 16 -15 47 -12 38 4 40 6 35 31 -18 74 -57
104 -142 109 -57 3 -72 0 -102 -20z"/>
</g>
</svg>
